<?xml version="1.0" standalone="no"?>
<!DOCTYPE svg PUBLIC "-//W3C//DTD SVG 20010904//EN"
 "http://www.w3.org/TR/2001/REC-SVG-20010904/DTD/svg10.dtd">
<svg version="1.0" xmlns="http://www.w3.org/2000/svg"
 width="150.000000pt" height="150.000000pt" viewBox="0 0 150.000000 150.000000"
 preserveAspectRatio="xMidYMid meet">
<metadata>
Created by potrace 1.14, written by Peter Selinger 2001-2017
</metadata>
<g transform="translate(0.000000,150.000000) scale(0.100000,-0.100000)"
fill="#000000" stroke="none">
<path d="M340 1192 c-128 -33 -206 -102 -241 -215 -19 -59 -18 -163 1 -223 31
-96 112 -171 216 -204 104 -32 281 -20 370 24 30 15 30 16 29 93 0 43 -5 78
-10 77 -6 0 -31 -10 -57 -22 -95 -45 -188 -48 -266 -8 -40 20 -55 35 -75 75
-47 95 -13 187 88 236 49 24 64 27 129 23 56 -4 86 -12 129 -35 l56 -30 3 85
3 85 -33 14 c-91 38 -247 49 -342 25z"/>
<path d="M850 867 l0 -332 92 2 c51 1 96 2 100 2 4 1 9 56 10 123 l3 122 100
2 c107 2 141 11 193 50 76 59 97 180 43 264 -22 34 -38 48 -91 73 -41 19 -64
21 -247 24 l-203 2 0 -332z m351 174 c24 -29 24 -72 1 -101 -13 -17 -32 -22
-85 -27 l-67 -5 0 82 0 82 66 -4 c55 -3 70 -8 85 -27z"/>
</g>
</svg>
